<?xml version="1.0" encoding="UTF-8" standalone="no"?>
<!-- Created with Inkscape (http://www.inkscape.org/) -->

<svg
   width="50"
   height="50"
   viewBox="0 0 13.229166 13.229166"
   version="1.1"
   id="svg1"
   inkscape:export-filename="sudoku.svg"
   inkscape:export-xdpi="96"
   inkscape:export-ydpi="96"
   sodipodi:docname="bevel.svg"
   inkscape:version="1.4 (86a8ad7, 2024-10-11)"
   xml:space="preserve"
   xmlns:inkscape="http://www.inkscape.org/namespaces/inkscape"
   xmlns:sodipodi="http://sodipodi.sourceforge.net/DTD/sodipodi-0.dtd"
   xmlns="http://www.w3.org/2000/svg"
   xmlns:svg="http://www.w3.org/2000/svg"><sodipodi:namedview
     id="namedview1"
     pagecolor="#343434"
     bordercolor="#666666"
     borderopacity="1.0"
     inkscape:showpageshadow="2"
     inkscape:pageopacity="0.0"
     inkscape:pagecheckerboard="0"
     inkscape:deskcolor="#d1d1d1"
     inkscape:document-units="mm"
     inkscape:zoom="9.9888888"
     inkscape:cx="39.343716"
     inkscape:cy="54.410457"
     inkscape:window-width="1920"
     inkscape:window-height="1121"
     inkscape:window-x="-7"
     inkscape:window-y="-7"
     inkscape:window-maximized="1"
     inkscape:current-layer="layer1"><inkscape:page
       x="0"
       y="0"
       width="13.229166"
       height="13.229166"
       id="page2"
       margin="0"
       bleed="0" /></sodipodi:namedview><defs
     id="defs1" /><g
     inkscape:label="Layer 1"
     inkscape:groupmode="layer"
     id="layer1"><path
       d="M 3.6254871,10.095943 0.8404002,12.881029 H 12.388764 L 9.6036774,10.095943 Z M 3.1332228,9.6036789 0.34813591,12.388765 V 0.84040129 L 3.1332228,3.6254879 Z M 3.6254871,3.1332235 0.8404002,0.34813682 H 12.388764 L 9.6036774,3.1332235 Z M 10.095942,3.6254879 12.881029,0.84040129 V 12.388765 L 10.095942,9.6036789 Z M 3.8294952,3.8294958 H 9.3996694 V 9.3996709 H 3.8294952 Z m 2.7850877,4.8739041 c 1.1537225,0 2.088816,-0.9350935 2.088816,-2.088816 0,-1.1537224 -0.9350935,-2.0888157 -2.088816,-2.0888157 -1.153722,0 -2.0888154,0.9350933 -2.0888154,2.0888157 0,1.1537225 0.9350934,2.088816 2.0888154,2.088816 z m 0,-0.6962724 c 0.7693805,0 1.3925436,-0.6231631 1.3925436,-1.3925436 0,-0.7693799 -0.6231631,-1.3925445 -1.3925436,-1.3925445 -0.7693799,0 -1.3925444,0.6231646 -1.3925444,1.3925445 0,0.7693805 0.6231645,1.3925436 1.3925444,1.3925436 z M 0,0 H 13.229165 V 13.229167 H 0 Z"
       id="path1"
       style="opacity:0.1;fill:#ffffff;fill-opacity:1;fill-rule:evenodd;stroke-width:0.348136" /></g></svg>
