<?xml version="1.0" encoding="UTF-8" standalone="no"?>
<!-- Created with Inkscape (http://www.inkscape.org/) -->

<svg
   width="380"
   height="150"
   viewBox="0 0 100.54166 39.6875"
   version="1.1"
   id="svg1"
   xml:space="preserve"
   inkscape:export-filename="blue marble.svg"
   inkscape:export-xdpi="96"
   inkscape:export-ydpi="96"
   sodipodi:docname="blue_marble_logo.svg"
   inkscape:version="1.4 (86a8ad7, 2024-10-11)"
   xmlns:inkscape="http://www.inkscape.org/namespaces/inkscape"
   xmlns:sodipodi="http://sodipodi.sourceforge.net/DTD/sodipodi-0.dtd"
   xmlns="http://www.w3.org/2000/svg"
   xmlns:svg="http://www.w3.org/2000/svg"><sodipodi:namedview
     id="namedview1"
     pagecolor="#ff4f4f"
     bordercolor="#666666"
     borderopacity="1.0"
     inkscape:showpageshadow="2"
     inkscape:pageopacity="0.0"
     inkscape:pagecheckerboard="0"
     inkscape:deskcolor="#d1d1d1"
     inkscape:document-units="mm"
     inkscape:zoom="38.808156"
     inkscape:cx="270.13652"
     inkscape:cy="55.001325"
     inkscape:window-width="1059"
     inkscape:window-height="1113"
     inkscape:window-x="-6"
     inkscape:window-y="0"
     inkscape:window-maximized="0"
     inkscape:current-layer="layer1"><inkscape:page
       x="0"
       y="0"
       width="100.54166"
       height="39.6875"
       id="page2"
       margin="0"
       bleed="0" /></sodipodi:namedview><defs
     id="defs1" /><g
     inkscape:label="Layer 1"
     inkscape:groupmode="layer"
     id="layer1"><path
       id="path1-8"
       style="fill:#ffffff;fill-opacity:1;stroke:none;stroke-width:0.72686;stroke-linecap:square;stroke-dasharray:none;stroke-opacity:1;paint-order:stroke fill markers"
       d="m 81.277394,3.7204301 c -0.03918,0.055954 -0.07556,0.1197217 -0.107052,0.2095935 -0.102916,0.2937429 -0.17819,0.8405014 -0.05444,1.2091065 0.123733,0.3686051 0.444104,0.5790058 0.925897,0.7343284 0.481792,0.1553226 1.120448,0.2549232 1.559929,0.264809 0.439475,0.00989 0.679717,-0.0702 0.88983,0.084889 0.210114,0.1550888 0.39007,0.5452411 0.555162,0.8654182 0.165092,0.3201772 0.31521,0.5704694 0.610374,0.7155477 0.29517,0.1450783 0.735532,0.1849394 1.030688,0.1949445 0.295163,0.010005 0.445267,-0.00974 0.620899,0.1431095 0.175624,0.1528482 0.390164,0.4999902 0.397396,0.8838234 0.0073,0.3838332 -0.193032,0.8041112 -0.398152,1.0742602 -0.205113,0.27015 -0.415103,0.390139 -0.695264,0.505203 -0.280154,0.115065 -0.630305,0.22531 -0.880439,0.400407 -0.250142,0.175096 -0.400406,0.415241 -0.510467,0.705405 -0.110061,0.290165 -0.179934,0.630433 -0.194944,1.00064 -0.01497,0.370208 0.02479,0.770356 0.134847,1.085529 0.110061,0.315174 0.29017,0.54532 0.470272,0.705407 0.180101,0.160086 0.360479,0.250088 0.600612,0.300116 0.240133,0.05003 0.540181,0.05998 0.710288,0.06498 0.170107,0.005 0.209968,0.005 0.209968,-0.110055 0,-0.115068 -0.0399,-0.345165 -0.129963,-0.550277 -0.09005,-0.205113 -0.230138,-0.385307 -0.235139,-0.545394 -0.0051,-0.160087 0.125093,-0.300063 0.250164,-0.365098 0.125063,-0.06503 0.245046,-0.05522 0.380119,0.05484 0.135079,0.110063 0.285125,0.320237 0.425198,0.515344 0.140081,0.195109 0.270356,0.375196 0.305376,0.565302 0.03504,0.190106 -0.02522,0.390172 -0.100285,0.535252 -0.07505,0.14508 -0.165135,0.235234 -0.265187,0.325284 -0.10006,0.09005 -0.210099,0.180105 -0.33017,0.235135 -0.120062,0.05503 -0.250047,0.07488 -0.380118,0.08489 -0.130072,0.01001 -0.260042,0.01002 -0.365102,0.125079 -0.105054,0.115065 -0.185197,0.345167 -0.2002,0.550277 -0.01505,0.205112 0.03525,0.385476 0.08526,0.585585 0.05001,0.200109 0.09975,0.419996 0.01425,0.602112 -0.08547,0.182116 -0.320204,0.335248 -0.517598,0.626903 -0.197393,0.291655 -0.35723,0.721972 -0.372232,0.987117 -0.01505,0.265145 0.114909,0.365077 0.320022,0.460129 0.205113,0.09505 0.485216,0.185315 0.75536,0.19532 0.270153,0.01 0.530449,-0.06029 0.715551,-0.115314 0.185095,-0.05503 0.295105,-0.09475 0.410167,-0.184803 0.11507,-0.09005 0.235089,-0.230329 0.315145,-0.305375 0.08006,-0.07505 0.120019,-0.08514 0.19006,-0.09015 0.07007,-0.005 0.170274,-0.0049 0.275327,-0.129964 0.105061,-0.125071 0.215042,-0.375268 0.270065,-0.515345 0.05502,-0.140075 0.05502,-0.200048 0.08001,-0.285092 0.025,-0.08504 0.0751,-0.195059 0.170151,-0.300116 0.09505,-0.105058 0.235045,-0.205048 0.380119,-0.285093 0.145081,-0.08004 0.295149,-0.139969 0.440223,-0.129963 0.145081,0.01001 0.285118,0.09001 0.425199,0.190062 0.14008,0.100055 0.28043,0.220051 0.365472,0.395148 0.08505,0.175097 0.115026,0.405317 0.19006,0.545394 0.07504,0.140075 0.194973,0.190084 0.335053,0.09503 0.140081,-0.09505 0.300332,-0.335158 0.385382,-0.550277 0.08504,-0.215119 0.09501,-0.405448 0.08,-0.555535 -0.01497,-0.150087 -0.05517,-0.259935 0.01992,-0.385006 0.07504,-0.125071 0.265275,-0.265115 0.465387,-0.315142 0.200112,-0.05003 0.409957,-0.01035 0.560039,0.02968 0.150082,0.04002 0.240148,0.08008 0.360218,0.155129 0.12007,0.07504 0.27037,0.185327 0.3204,0.3204 0.05001,0.135072 -1.31e-4,0.29519 -0.120194,0.485296 -0.12007,0.190104 -0.310318,0.410248 -0.480411,0.59535 -0.1701,0.185101 -0.31995,0.335109 -0.480041,0.505203 -0.160091,0.170094 -0.330365,0.360156 -0.510459,0.535252 -0.180102,0.175096 -0.370154,0.335251 -0.645307,0.405289 -0.275153,0.07004 -0.635494,0.04981 -0.935658,0.02479 -0.300172,-0.02501 -0.539985,-0.05499 -0.86016,-0.08 -0.320182,-0.02501 -0.720355,-0.04504 -0.9905,-0.01502 -0.270152,0.03002 -0.410538,0.110073 -0.63066,0.12508 -0.220123,0.01501 -0.520113,-0.03477 -0.760245,0.0052 -0.240133,0.04002 -0.420235,0.170111 -0.580326,0.360216 -0.160091,0.190106 -0.300004,0.439987 -0.430083,0.685122 -0.130072,0.245136 -0.250425,0.485157 -0.380497,0.820345 -0.130072,0.335188 -0.270094,0.765611 -0.410167,1.325923 -0.140081,0.560313 -0.279951,1.250825 -0.385011,1.736095 -0.105061,0.48527 -0.17529,0.765303 -0.180291,1.040456 -0.0051,0.275152 0.05524,0.545382 0.165267,0.765504 0.110061,0.220121 0.270094,0.389949 0.410174,0.560043 0.140073,0.170093 0.260274,0.340398 0.465387,0.540511 0.205113,0.200112 0.494919,0.430138 0.830111,0.600233 0.335185,0.170095 0.715652,0.280187 1.275967,0.37524 0.560308,0.09505 1.300594,0.175126 1.840891,0.140105 0.540297,-0.03502 0.880446,-0.18503 1.115578,-0.395148 0.235125,-0.210117 0.365058,-0.480472 0.4451,-0.650566 0.08005,-0.170095 0.110381,-0.2401 0.410553,-0.315141 0.300172,-0.07504 0.870437,-0.155003 1.225632,-0.270068 0.355195,-0.115065 0.495072,-0.265091 0.620143,-0.410173 0.125071,-0.14508 0.235263,-0.285135 0.355333,-0.44022 0.120063,-0.155086 0.250214,-0.325263 0.420314,-0.420315 0.170093,-0.09505 0.380177,-0.115267 0.550277,-0.07024 0.170093,0.04503 0.299961,0.155183 0.524357,0.332044 0.224397,0.176861 0.543132,0.420773 0.659205,0.540511 0.03794,0.03915 0.07145,0.06195 0.111558,0.07888 0.931748,-2.096174 1.41535,-4.363866 1.419828,-6.657787 C 97.610712,11.145091 90.3194,3.7948858 81.277394,3.720417 Z m -9.007633,2.5932498 c -2.673725,1.7091149 -4.796797,4.1542281 -6.113898,7.0412891 0.02601,0.0017 0.05055,0.0036 0.077,0.0057 0.395215,0.03002 0.847193,0.110914 1.383392,0.246404 0.536199,0.13549 1.156716,0.325392 1.682007,0.540511 0.25332,0.103741 1.092789,0.37111 1.092789,0.37111 l -8e-4,-1.490292 2.599506,-0.0086 0.01047,1.83533 c 6.26e-4,0.109709 0.59511,0.885184 0.735205,0.818182 0.230124,-0.110061 0.210216,-0.350063 0.09015,-0.570184 -0.120071,-0.220122 -0.340062,-0.420185 -0.460125,-0.645308 -0.12007,-0.225123 -0.14011,-0.475369 -0.14011,-0.670473 0,-0.195106 0.01977,-0.335144 0.134848,-0.535253 0.115069,-0.200108 0.325495,-0.460118 0.520606,-0.68024 0.195104,-0.220121 0.375162,-0.400384 0.645307,-0.495437 0.270145,-0.09505 0.630297,-0.105052 0.9905,-0.110055 0.360196,-0.005 0.720261,-0.0049 1.025426,0.04507 0.305172,0.05003 0.555517,0.149968 0.885701,0.240018 0.330191,0.09005 0.740409,0.17033 1.035573,0.100289 0.295163,-0.07004 0.475032,-0.290406 0.590094,-0.57056 0.115062,-0.280154 0.165157,-0.620348 0.06011,-0.925517 -0.10506,-0.305168 -0.365371,-0.575295 -0.620513,-0.785412 C 78.237852,9.8601319 77.987769,9.7100062 77.737627,9.5699285 77.487492,9.4298509 77.187452,9.2741276 77.011944,8.9926072 76.836429,8.7110869 76.573458,7.9100496 76.201742,7.521321 75.830018,7.1325926 74.907341,6.6376627 74.171911,6.4988955 73.551994,6.3819241 72.907523,6.4313905 72.269797,6.313717 Z m 9.347564,2.5782252 c -0.0734,0 -0.142974,0.017219 -0.213726,0.037564 -0.141498,0.040682 -0.286601,0.093846 -0.438719,0.1840513 -0.15211,0.090205 -0.31154,0.217417 -0.447731,0.3500734 -0.136192,0.1326571 -0.249088,0.2708122 -0.341058,0.4529926 -0.09198,0.1821806 -0.162817,0.4082096 -0.171655,0.6133806 -0.0089,0.205171 0.04405,0.389245 0.118318,0.530744 0.07429,0.1415 0.169991,0.24055 0.313262,0.376743 0.143265,0.136193 0.334204,0.30963 0.442099,0.421065 0.107895,0.111435 0.132601,0.160786 0.144987,0.185554 0.01236,0.02477 -0.101448,0.238255 -0.108179,0.380874 -0.0065,0.14262 0.03562,0.323026 0.14349,0.462759 0.107895,0.139732 0.281513,0.238966 0.484917,0.258423 0.203412,0.01946 0.436836,-0.04068 0.576568,-0.139728 0.139731,-0.09905 0.185676,-0.237022 0.242277,-0.389138 0.05662,-0.152116 0.12385,-0.318512 0.176911,-0.500696 0.05306,-0.182184 0.09169,-0.380177 0.128836,-0.569433 0.03714,-0.189256 0.07271,-0.369473 0.118696,-0.537506 0.04601,-0.168034 0.102662,-0.323996 0.116814,-0.467266 0.01417,-0.14327 -0.01439,-0.273914 -0.101041,-0.44548 C 82.715727,9.925316 82.57082,9.7130779 82.397479,9.4955213 82.224144,9.2779654 82.022637,9.0549224 81.852835,8.9576401 c -0.0849,-0.048642 -0.162105,-0.06573 -0.23551,-0.06573 z m -5.502392,4.0645359 c -0.118188,0.0012 -0.223096,0.02157 -0.318147,0.05784 -0.190103,0.07254 -0.340294,0.207663 -0.442847,0.390264 -0.10256,0.182601 -0.157424,0.412968 -0.194944,0.563048 -0.03751,0.150079 -0.05764,0.220026 -0.0676,0.255042 -0.01003,0.03502 -0.01025,0.03477 -0.08527,0.11231 -0.07504,0.07754 -0.225058,0.232831 -0.292605,0.41543 -0.06753,0.1826 -0.05241,0.39269 0.01018,0.550277 0.06251,0.157587 0.172629,0.262596 0.26518,0.300118 0.09255,0.03752 0.167629,0.0075 0.265188,-0.04507 0.09755,-0.05253 0.217375,-0.127465 0.347447,-0.247531 0.130071,-0.120066 0.270123,-0.28511 0.440216,-0.417685 0.170099,-0.132574 0.370175,-0.232585 0.660338,-0.307629 0.290155,-0.07504 0.670463,-0.125313 0.898094,-0.225369 0.227624,-0.100055 0.302701,-0.250083 0.265181,-0.410172 -0.03751,-0.160088 -0.187705,-0.329979 -0.442847,-0.502573 -0.255143,-0.172595 -0.615331,-0.34791 -0.910495,-0.430456 -0.147582,-0.04127 -0.278831,-0.05909 -0.397026,-0.05784 z m 4.172717,17.870286 c -0.241303,-0.01149 -0.44385,0.02976 -0.668974,0.104797 -0.300164,0.100055 -0.640371,0.260394 -0.940543,0.460505 -0.300164,0.20011 -0.560125,0.439988 -0.870299,0.685123 -0.310173,0.245134 -0.670274,0.495475 -0.945427,0.760621 -0.275153,0.265146 -0.465307,0.54519 -0.625398,0.820345 -0.160091,0.275153 -0.290352,0.545399 -0.457871,0.859783 -0.16172,0.303496 -0.360792,0.647854 -0.608499,0.976601 1.431661,0.558377 2.934423,0.913649 4.464566,1.055479 0.0058,-0.0219 0.0096,-0.03446 0.01839,-0.0785 0.02333,-0.116997 0.05938,-0.352053 0.15738,-0.609624 0.09802,-0.25757 0.257853,-0.537919 0.422945,-0.803066 0.165092,-0.265147 0.335156,-0.515023 0.550277,-0.795178 0.215122,-0.280156 0.475461,-0.590283 0.760623,-0.880443 0.285155,-0.290161 0.59527,-0.560438 0.755361,-0.810579 0.160091,-0.25014 0.170296,-0.480143 0.07022,-0.695264 -0.10006,-0.21512 -0.310384,-0.415506 -0.650569,-0.600609 -0.340186,-0.185104 -0.810472,-0.354902 -1.175675,-0.419939 -0.0913,-0.01626 -0.176112,-0.02622 -0.256546,-0.03005 z"
       sodipodi:nodetypes="ccssssssssssssssssssssssssssssssssssssssssssssssssssssssssssssssssssssssssssssssssssssssssssccccssssscccsssssssssssssssssscssssssssssssssssssssssssssssssssssssssssssssssssccsssssssssscsscs" /><path
       style="fill:none;stroke:#ffffff;stroke-width:0.72686;stroke-linecap:round;stroke-linejoin:round;stroke-dasharray:none;stroke-opacity:1;paint-order:stroke fill markers"
       id="path1"
       sodipodi:type="arc"
       sodipodi:cx="81.141678"
       sodipodi:cy="20.187416"
       sodipodi:rx="16.470415"
       sodipodi:ry="16.470415"
       sodipodi:start="3.5910689"
       sodipodi:end="1.9208036"
       sodipodi:open="true"
       sodipodi:arc-type="arc"
       d="M 66.30719,13.031122 A 16.470415,16.470415 0 0 1 87.802272,5.1238487 16.470415,16.470415 0 0 1 96.417766,26.344988 16.470415,16.470415 0 0 1 75.493896,35.659234" /><text
       xml:space="preserve"
       style="font-size:11.8713px;line-height:14.1269px;font-family:'Ms Madi';-inkscape-font-specification:'Ms Madi, Normal';text-align:center;letter-spacing:0.0222589px;word-spacing:0px;text-anchor:middle;fill:#ffffff;fill-opacity:1;stroke-width:0.445175"
       x="32.614841"
       y="44.029343"
       id="text13"
       transform="scale(1.2681325,0.78856113)"><tspan
         id="tspan13"
         style="font-style:normal;font-variant:normal;font-weight:normal;font-stretch:normal;font-size:11.8713px;line-height:14.1269px;font-family:Arial;-inkscape-font-specification:Arial;letter-spacing:0.0222589px;writing-mode:lr-tb;direction:rtl;fill:#ffffff;fill-opacity:1;stroke-width:0.445175"
         x="32.625973"
         y="44.029343"
         sodipodi:role="line">SECURITY</tspan></text><text
       xml:space="preserve"
       style="font-size:15.8847px;line-height:1.25;font-family:'Ms Madi';-inkscape-font-specification:'Ms Madi, Normal';text-align:center;letter-spacing:-0.00277217px;word-spacing:0px;text-anchor:middle;fill:#ffffff;fill-opacity:1;stroke-width:0.138607"
       x="48.217358"
       y="23.088749"
       id="text14"
       transform="scale(0.87677027,1.1405496)"><tspan
         sodipodi:role="line"
         id="tspan14"
         style="font-style:normal;font-variant:normal;font-weight:bold;font-stretch:normal;font-size:15.8847px;font-family:Arial;-inkscape-font-specification:Arial;fill:#ffffff;fill-opacity:1;stroke:none;stroke-width:0.138607;stroke-opacity:1"
         x="48.215973"
         y="23.088749">blue marble</tspan></text></g></svg>
