<?xml version="1.0" encoding="UTF-8" standalone="no"?>
<!-- Created with Inkscape (http://www.inkscape.org/) -->

<svg
   width="90.909096"
   height="100"
   viewBox="0 0 24.05303 26.458332"
   version="1.1"
   id="svg1"
   inkscape:export-filename="sudoku.svg"
   inkscape:export-xdpi="96"
   inkscape:export-ydpi="96"
   sodipodi:docname="moroccan.svg"
   inkscape:version="1.4 (86a8ad7, 2024-10-11)"
   xml:space="preserve"
   xmlns:inkscape="http://www.inkscape.org/namespaces/inkscape"
   xmlns:sodipodi="http://sodipodi.sourceforge.net/DTD/sodipodi-0.dtd"
   xmlns="http://www.w3.org/2000/svg"
   xmlns:svg="http://www.w3.org/2000/svg"><sodipodi:namedview
     id="namedview1"
     pagecolor="#343434"
     bordercolor="#666666"
     borderopacity="1.0"
     inkscape:showpageshadow="2"
     inkscape:pageopacity="0.0"
     inkscape:pagecheckerboard="0"
     inkscape:deskcolor="#d1d1d1"
     inkscape:document-units="mm"
     inkscape:zoom="9.9888888"
     inkscape:cx="33.937709"
     inkscape:cy="44.799778"
     inkscape:window-width="1920"
     inkscape:window-height="1121"
     inkscape:window-x="-7"
     inkscape:window-y="-7"
     inkscape:window-maximized="1"
     inkscape:current-layer="layer1"><inkscape:page
       x="0"
       y="0"
       width="24.05303"
       height="26.458332"
       id="page2"
       margin="0"
       bleed="0" /></sodipodi:namedview><defs
     id="defs1" /><g
     inkscape:label="Layer 1"
     inkscape:groupmode="layer"
     id="layer1"><path
       d="m 6.6145831,6.5876194 v 1.229616 H 6.0129274 c -2.9878444,0 -5.41160125,2.4230046 -5.41160125,5.4119316 0,2.989584 2.42285575,5.411932 5.41160125,5.411932 h 0.6016557 v 1.229645 c 2.4088921,0.21715 4.4453649,1.725285 5.4117999,3.827575 0.965977,-2.102148 3.001722,-3.61054 5.412064,-3.827604 v -1.229616 h 0.601657 c 2.987843,0 5.411601,-2.423004 5.411601,-5.411932 0,-2.989584 -2.422857,-5.4119316 -5.411601,-5.4119316 H 17.438447 V 6.587591 C 15.029556,6.370441 12.993082,4.8623046 12.026647,2.760016 11.060671,4.8621637 9.0249263,6.3705558 6.6145831,6.5876194 Z M 16.235796,17.438447 v 1.411831 c -1.676012,0.395903 -3.143579,1.331294 -4.209281,2.612754 -1.065702,-1.28146 -2.5332694,-2.216851 -4.2092796,-2.612754 V 17.438447 H 6.0154206 c -2.325916,0 -4.2114433,-1.884048 -4.2114433,-4.20928 0,-2.324721 1.8867773,-4.2092805 4.2114433,-4.2092805 H 7.8172354 V 7.6080558 C 9.4932456,7.2121535 10.960813,6.2767626 12.026515,4.9953024 c 1.065702,1.2814602 2.533269,2.2168511 4.209281,2.6127534 v 1.4118307 h 1.801815 c 2.325915,0 4.211443,1.8840485 4.211443,4.2092805 0,2.324721 -1.886778,4.20928 -4.211443,4.20928 z m -3.607955,9.019886 c 0,-2.988927 2.423758,-5.411932 5.411601,-5.411932 h 0.601657 v -1.229615 0 C 21.051332,19.599732 23.087,18.091467 24.053031,15.98947 v 2.234998 c -1.065702,1.281461 -2.533269,2.216852 -4.209281,2.612755 v 1.411831 h -1.801814 c -2.324666,0 -4.211444,1.884558 -4.211444,4.209279 z m -1.202651,0 c 0,-2.989584 -2.4228569,-5.411932 -5.4116024,-5.411932 H 5.4119319 V 19.816757 C 3.0030398,19.599607 0.96656706,18.091472 1.3181818e-4,15.989182 L 0,18.224468 c 1.0657023,1.281461 2.5332694,2.216852 4.2092808,2.612755 v 1.411831 h 1.8018136 c 2.325916,0 4.2114436,1.884048 4.2114436,4.209279 z M 12.627841,0 c 0,2.9895853 2.422857,5.4119319 5.411601,5.4119319 h 0.601657 v 1.2296455 c 2.408891,0.21715 4.445365,1.7252852 5.4118,3.8275746 l 1.32e-4,-2.2352871 C 22.987329,6.9524058 21.519762,6.0170149 19.84375,5.6211115 V 4.2092808 H 18.041936 C 15.71602,4.2092808 13.830492,2.325233 13.830492,0 Z M 0,10.468865 C 0.9660307,8.3668672 3.0016989,6.8586024 5.4119319,6.641549 V 5.4119319 H 6.0135876 C 9.001432,5.4119319 11.42519,2.9889285 11.42519,0 h -1.202652 c 0,2.3247216 -1.8867776,4.2092808 -4.2114436,4.2092808 H 4.2092808 v 0 1.4118307 C 2.5332694,6.0170149 1.0657023,6.9524058 0,8.2338649 Z"
       id="Combined-Shape"
       style="fill:#ffffff;fill-rule:evenodd;stroke:none;stroke-width:0.300662;fill-opacity:1;opacity:0.1" /></g></svg>
