<?xml version="1.0" encoding="UTF-8" standalone="no"?>
<!-- Created with Inkscape (http://www.inkscape.org/) -->

<svg
   width="50"
   height="50"
   viewBox="0 0 13.229166 13.229166"
   version="1.1"
   id="svg1"
   inkscape:export-filename="sudoku.svg"
   inkscape:export-xdpi="96"
   inkscape:export-ydpi="96"
   sodipodi:docname="rounded.svg"
   inkscape:version="1.4 (86a8ad7, 2024-10-11)"
   xml:space="preserve"
   xmlns:inkscape="http://www.inkscape.org/namespaces/inkscape"
   xmlns:sodipodi="http://sodipodi.sourceforge.net/DTD/sodipodi-0.dtd"
   xmlns="http://www.w3.org/2000/svg"
   xmlns:svg="http://www.w3.org/2000/svg"><sodipodi:namedview
     id="namedview1"
     pagecolor="#343434"
     bordercolor="#666666"
     borderopacity="1.0"
     inkscape:showpageshadow="2"
     inkscape:pageopacity="0.0"
     inkscape:pagecheckerboard="0"
     inkscape:deskcolor="#d1d1d1"
     inkscape:document-units="mm"
     inkscape:zoom="19.977778"
     inkscape:cx="27.505562"
     inkscape:cy="16.943827"
     inkscape:window-width="1059"
     inkscape:window-height="1113"
     inkscape:window-x="847"
     inkscape:window-y="0"
     inkscape:window-maximized="0"
     inkscape:current-layer="layer1"><inkscape:page
       x="0"
       y="0"
       width="13.229166"
       height="13.229166"
       id="page2"
       margin="0"
       bleed="0" /></sodipodi:namedview><defs
     id="defs1" /><g
     inkscape:label="Layer 1"
     inkscape:groupmode="layer"
     id="layer1"><path
       id="path1-7"
       style="opacity:0.1;fill:#ffffff;fill-opacity:1;fill-rule:evenodd;stroke-width:0.31498"
       sodipodi:type="inkscape:offset"
       inkscape:radius="0.27306986"
       inkscape:original="M 7.2441406 0 C 7.2441406 1.3912678 6.1149308 2.5195312 4.7246094 2.5195312 L 2.5195312 2.5195312 L 2.5195312 4.7246094 C 2.5195312 6.1161911 1.3922131 7.2441406 0 7.2441406 L 0 19.212891 C 1.3912678 19.212891 2.5195312 20.342099 2.5195312 21.732422 L 2.5195312 23.939453 L 4.7246094 23.939453 C 6.1161915 23.939453 7.2441406 25.066773 7.2441406 26.458984 L 19.212891 26.458984 C 19.212891 25.067717 20.342099 23.939453 21.732422 23.939453 L 23.939453 23.939453 L 23.939453 21.732422 C 23.939453 20.34084 25.066773 19.212891 26.458984 19.212891 L 26.458984 7.2441406 C 25.067717 7.2441406 23.939453 6.1149304 23.939453 4.7246094 L 23.939453 2.5195312 L 21.732422 2.5195312 C 20.34084 2.5195312 19.212891 1.3922131 19.212891 0 L 7.2441406 0 z M 7.859375 0.31445312 L 12.914062 0.31445312 L 12.914062 5.3710938 C 11.322154 5.5285842 10.080078 6.8710491 10.080078 8.5039062 L 10.080078 10.080078 L 8.5039062 10.080078 C 6.8723098 10.080078 5.5278906 11.322468 5.3691406 12.914062 L 0.31445312 12.914062 L 0.31445312 7.859375 C 1.9063627 7.7018845 3.1503906 6.357466 3.1503906 4.7246094 L 3.1503906 3.1503906 L 4.7246094 3.1503906 C 6.3562059 3.1503906 7.7006249 1.9060471 7.859375 0.31445312 z M 13.544922 0.31445312 L 18.599609 0.31445312 C 18.758044 1.9063627 20.099565 3.1503906 21.732422 3.1503906 L 23.308594 3.1503906 L 23.308594 4.7246094 C 23.308594 6.3562053 24.550983 7.7012548 26.142578 7.859375 L 26.142578 12.914062 L 21.087891 12.914062 C 20.929456 11.322153 19.587936 10.080078 17.955078 10.080078 L 16.378906 10.080078 L 16.378906 8.5039062 C 16.378906 6.8723098 15.136517 5.5292139 13.544922 5.3710938 L 13.544922 0.31445312 z M 13.228516 5.984375 C 14.619784 5.984375 15.748047 7.1135836 15.748047 8.5039062 L 15.748047 10.708984 L 17.955078 10.708984 C 19.346661 10.708984 20.474609 11.836303 20.474609 13.228516 C 20.474609 14.619784 19.345401 15.748047 17.955078 15.748047 L 15.748047 15.748047 L 15.748047 17.955078 C 15.748047 19.346661 14.620728 20.474609 13.228516 20.474609 C 11.837249 20.474609 10.708984 19.345401 10.708984 17.955078 L 10.708984 15.748047 L 8.5039062 15.748047 C 7.1123242 15.748047 5.984375 14.620728 5.984375 13.228516 C 5.984375 11.837249 7.1135837 10.708984 8.5039062 10.708984 L 10.708984 10.708984 L 10.708984 8.5039062 C 10.708984 7.1123242 11.836303 5.984375 13.228516 5.984375 z M 0.31445312 13.544922 L 5.3691406 13.544922 C 5.5275752 15.136832 6.8710492 16.378906 8.5039062 16.378906 L 10.080078 16.378906 L 10.080078 17.955078 C 10.080078 19.586676 11.322468 20.92977 12.914062 21.087891 L 12.914062 26.142578 L 7.859375 26.142578 C 7.7009393 24.550668 6.3574666 23.308594 4.7246094 23.308594 L 3.1503906 23.308594 L 3.1503906 21.732422 C 3.1503906 20.100824 1.9060471 18.757729 0.31445312 18.599609 L 0.31445312 13.544922 z M 21.087891 13.544922 L 26.142578 13.544922 L 26.142578 18.599609 C 24.550668 18.757099 23.308594 20.099564 23.308594 21.732422 L 23.308594 23.308594 L 21.732422 23.308594 C 20.100824 23.308594 18.758359 24.550983 18.599609 26.142578 L 13.544922 26.142578 L 13.544922 21.087891 C 15.136832 20.9304 16.378906 19.587936 16.378906 17.955078 L 16.378906 16.378906 L 17.955078 16.378906 C 19.586676 16.378906 20.92914 15.136517 21.087891 13.544922 z "
       d="M 7.2441406,-0.2734375 A 0.27309717,0.27309717 0 0 0 6.9707031,0 c 0,1.2435114 -1.0035054,2.2460938 -2.2460937,2.2460938 H 2.5195313 A 0.27309717,0.27309717 0 0 0 2.2460938,2.5195313 V 4.7246094 C 2.2460938,5.9687154 1.2447218,6.9707031 0,6.9707031 A 0.27309717,0.27309717 0 0 0 -0.2734375,7.2441406 V 19.212891 A 0.27309717,0.27309717 0 0 0 0,19.486328 c 1.2435116,0 2.2460937,1.003504 2.2460938,2.246094 v 2.207031 a 0.27309717,0.27309717 0 0 0 0.2734375,0.273438 h 2.2050781 c 1.2441062,0 2.2460937,1.001374 2.2460937,2.246093 a 0.27309717,0.27309717 0 0 0 0.2734375,0.273438 H 19.212891 a 0.27309717,0.27309717 0 0 0 0.273437,-0.273438 c 0,-1.24351 1.003504,-2.246093 2.246094,-2.246093 h 2.207031 a 0.27309717,0.27309717 0 0 0 0.273438,-0.273438 v -2.207031 c 0,-1.244106 1.001374,-2.246094 2.246093,-2.246094 a 0.27309717,0.27309717 0 0 0 0.273438,-0.273437 V 7.2441406 A 0.27309717,0.27309717 0 0 0 26.458984,6.9707031 c -1.24351,0 -2.246093,-1.0035059 -2.246093,-2.2460937 V 2.5195313 A 0.27309717,0.27309717 0 0 0 23.939453,2.2460938 H 21.732422 C 20.488315,2.2460938 19.486328,1.2447219 19.486328,0 A 0.27309717,0.27309717 0 0 0 19.212891,-0.2734375 Z M 8.0585938,0.58789062 H 12.640625 V 5.171875 C 11.038029,5.4563896 9.8066406,6.8225684 9.8066406,8.5039063 V 9.8066406 H 8.5039063 c -1.6802761,0 -3.0481389,1.2315744 -3.3339844,2.8339844 H 0.58789062 V 8.0585938 C 2.1908177,7.7739046 3.4238281,6.4061534 3.4238281,4.7246094 V 3.4238281 h 1.3007813 c 1.680483,0 3.0481599,-1.2333652 3.3339844,-2.83593748 z m 5.7597652,0 h 4.582032 C 18.68565,2.1904719 20.050878,3.4238281 21.732422,3.4238281 h 1.302734 v 1.3007813 c 0,1.6802755 1.231455,3.0486495 2.833985,3.3339844 V 12.640625 H 21.287109 C 21.001829,11.038206 19.636417,9.8066406 17.955078,9.8066406 H 16.652344 V 8.5039063 c 0,-1.680276 -1.231623,-3.0468921 -2.833985,-3.3320313 z M 13.228516,6.2578125 c 1.243511,0 2.246093,1.0035041 2.246093,2.2460938 v 2.2050777 a 0.27309717,0.27309717 0 0 0 0.273438,0.273438 h 2.207031 c 1.244108,0 2.246094,1.001372 2.246094,2.246094 0,1.243511 -1.003504,2.246093 -2.246094,2.246093 h -2.207031 a 0.27309717,0.27309717 0 0 0 -0.273438,0.273438 v 2.207031 c 0,1.244108 -1.001373,2.246094 -2.246093,2.246094 -1.243511,0 -2.246094,-1.003504 -2.246094,-2.246094 V 15.748047 A 0.27309717,0.27309717 0 0 0 10.708984,15.474609 H 8.5039063 c -1.2441063,0 -2.2460938,-1.001373 -2.2460938,-2.246093 0,-1.243511 1.0035044,-2.246094 2.2460938,-2.246094 h 2.2050777 a 0.27309717,0.27309717 0 0 0 0.273438,-0.273438 V 8.5039063 c 0,-1.2441063 1.001372,-2.2460938 2.246094,-2.2460938 z M 0.58789062,13.818359 H 5.1699219 c 0.2854757,1.602588 1.6526468,2.833985 3.3339844,2.833985 h 1.3027343 v 1.302734 c 0,1.680278 1.2316244,3.046892 2.8339844,3.332031 v 4.582032 H 8.0585938 C 7.7731171,24.266553 6.4059471,23.035156 4.7246094,23.035156 H 3.4238281 v -1.302734 c 0,-1.680484 -1.2334147,-3.046913 -2.83593748,-3.332031 z m 20.69921838,0 h 4.582032 v 4.582032 c -1.602597,0.284514 -2.833985,1.650692 -2.833985,3.332031 v 1.302734 h -1.302734 c -1.680277,0 -3.046382,1.231742 -3.332031,2.833985 h -4.582032 v -4.582032 c 1.602597,-0.284515 2.833985,-1.650692 2.833985,-3.332031 v -1.302734 h 1.302734 c 1.680277,0 3.046381,-1.231742 3.332031,-2.833985 z"
       transform="matrix(0.49998781,0,0,0.49998781,-0.05957284,-0.05957284)" /></g></svg>
