<?xml version="1.0" encoding="UTF-8" standalone="no"?>
<!-- Created with Inkscape (http://www.inkscape.org/) -->

<svg
   width="150"
   height="150"
   viewBox="0 0 39.687498 39.687498"
   version="1.1"
   id="svg1"
   inkscape:export-filename="sudoku.svg"
   inkscape:export-xdpi="96"
   inkscape:export-ydpi="96"
   sodipodi:docname="temple.svg"
   inkscape:version="1.4 (86a8ad7, 2024-10-11)"
   xml:space="preserve"
   xmlns:inkscape="http://www.inkscape.org/namespaces/inkscape"
   xmlns:sodipodi="http://sodipodi.sourceforge.net/DTD/sodipodi-0.dtd"
   xmlns="http://www.w3.org/2000/svg"
   xmlns:svg="http://www.w3.org/2000/svg"><sodipodi:namedview
     id="namedview1"
     pagecolor="#343434"
     bordercolor="#666666"
     borderopacity="1.0"
     inkscape:showpageshadow="2"
     inkscape:pageopacity="0.0"
     inkscape:pagecheckerboard="0"
     inkscape:deskcolor="#d1d1d1"
     inkscape:document-units="mm"
     inkscape:zoom="2.4972222"
     inkscape:cx="144.3604"
     inkscape:cy="191.21246"
     inkscape:window-width="1059"
     inkscape:window-height="1113"
     inkscape:window-x="853"
     inkscape:window-y="0"
     inkscape:window-maximized="0"
     inkscape:current-layer="layer1"><inkscape:page
       x="0"
       y="0"
       width="39.687496"
       height="39.687496"
       id="page2"
       margin="0"
       bleed="0" /></sodipodi:namedview><defs
     id="defs1" /><g
     inkscape:label="Layer 1"
     inkscape:groupmode="layer"
     id="layer1"><path
       id="path1"
       style="opacity:0.1;fill:#ffffff;fill-opacity:1;fill-rule:evenodd;stroke-width:0.174068"
       sodipodi:type="inkscape:offset"
       inkscape:radius="0.21210235"
       inkscape:original="M 4.8730469 0 L 4.8730469 1.3925781 L 1.3925781 1.3925781 L 1.3925781 4.8730469 L 0 4.8730469 L 0 5.2226562 L 1.3925781 5.2226562 L 1.3925781 12.185547 L 8.703125 12.185547 L 8.703125 8.703125 L 12.185547 8.703125 L 12.185547 1.3925781 L 5.2226562 1.3925781 L 5.2226562 0 L 4.8730469 0 z M 20.888672 0 L 20.888672 1.3925781 L 13.925781 1.3925781 L 13.925781 8.703125 L 17.40625 8.703125 L 17.40625 12.185547 L 24.716797 12.185547 L 24.716797 5.2226562 L 26.109375 5.2226562 L 26.109375 20.888672 L 24.716797 20.888672 L 24.716797 13.925781 L 17.40625 13.925781 L 17.40625 17.40625 L 13.925781 17.40625 L 13.925781 24.716797 L 20.888672 24.716797 L 20.888672 26.109375 L 5.2226562 26.109375 L 5.2226562 24.716797 L 12.185547 24.716797 L 12.185547 17.40625 L 8.703125 17.40625 L 8.703125 13.925781 L 1.3925781 13.925781 L 1.3925781 20.888672 L 0 20.888672 L 0 21.236328 L 1.3925781 21.236328 L 1.3925781 24.716797 L 4.8730469 24.716797 L 4.8730469 26.109375 L 0 26.109375 L 0 26.458984 L 26.458984 26.458984 L 26.458984 26.109375 L 26.458984 0 L 26.109375 0 L 26.109375 4.8730469 L 24.716797 4.8730469 L 24.716797 1.3925781 L 21.236328 1.3925781 L 21.236328 0 L 20.888672 0 z M 1.7402344 1.7402344 L 4.8730469 1.7402344 L 4.8730469 4.8730469 L 1.7402344 4.8730469 L 1.7402344 1.7402344 z M 5.2226562 1.7402344 L 11.835938 1.7402344 L 11.835938 4.8730469 L 8.3554688 4.8730469 L 8.3554688 8.3554688 L 4.8730469 8.3554688 L 4.8730469 11.835938 L 1.7402344 11.835938 L 1.7402344 5.2226562 L 5.2226562 5.2226562 L 5.2226562 1.7402344 z M 14.273438 1.7402344 L 20.888672 1.7402344 L 20.888672 5.2226562 L 24.369141 5.2226562 L 24.369141 11.835938 L 21.236328 11.835938 L 21.236328 8.3554688 L 17.755859 8.3554688 L 17.755859 4.8730469 L 14.273438 4.8730469 L 14.273438 1.7402344 z M 21.236328 1.7402344 L 24.369141 1.7402344 L 24.369141 4.8730469 L 21.236328 4.8730469 L 21.236328 1.7402344 z M 8.703125 5.2226562 L 11.835938 5.2226562 L 11.835938 8.3554688 L 8.703125 8.3554688 L 8.703125 5.2226562 z M 14.273438 5.2226562 L 17.40625 5.2226562 L 17.40625 8.3554688 L 14.273438 8.3554688 L 14.273438 5.2226562 z M 5.2226562 8.703125 L 8.3554688 8.703125 L 8.3554688 11.835938 L 5.2226562 11.835938 L 5.2226562 8.703125 z M 17.755859 8.703125 L 20.888672 8.703125 L 20.888672 11.835938 L 17.755859 11.835938 L 17.755859 8.703125 z M 1.7402344 14.273438 L 4.8730469 14.273438 L 4.8730469 17.755859 L 8.3554688 17.755859 L 8.3554688 21.236328 L 11.835938 21.236328 L 11.835938 24.369141 L 5.2226562 24.369141 L 5.2226562 20.888672 L 1.7402344 20.888672 L 1.7402344 14.273438 z M 5.2226562 14.273438 L 8.3554688 14.273438 L 8.3554688 17.40625 L 5.2226562 17.40625 L 5.2226562 14.273438 z M 17.755859 14.273438 L 20.888672 14.273438 L 20.888672 17.40625 L 17.755859 17.40625 L 17.755859 14.273438 z M 21.236328 14.273438 L 24.369141 14.273438 L 24.369141 20.888672 L 20.888672 20.888672 L 20.888672 24.369141 L 14.273438 24.369141 L 14.273438 21.236328 L 17.755859 21.236328 L 17.755859 17.755859 L 21.236328 17.755859 L 21.236328 14.273438 z M 8.703125 17.755859 L 11.835938 17.755859 L 11.835938 20.888672 L 8.703125 20.888672 L 8.703125 17.755859 z M 14.273438 17.755859 L 17.40625 17.755859 L 17.40625 20.888672 L 14.273438 20.888672 L 14.273438 17.755859 z M 1.7402344 21.236328 L 4.8730469 21.236328 L 4.8730469 24.369141 L 1.7402344 24.369141 L 1.7402344 21.236328 z M 21.236328 21.236328 L 24.369141 21.236328 L 24.369141 24.369141 L 21.236328 24.369141 L 21.236328 21.236328 z M 24.716797 21.236328 L 26.109375 21.236328 L 26.109375 26.109375 L 21.236328 26.109375 L 21.236328 24.716797 L 24.716797 24.716797 L 24.716797 21.236328 z "
       d="M 4.8730469,-0.21289063 A 0.21212356,0.21212356 0 0 0 4.6601562,0 V 1.1796875 H 1.3925781 A 0.21212356,0.21212356 0 0 0 1.1796875,1.3925781 V 4.6601562 H 0 A 0.21212356,0.21212356 0 0 0 -0.21289063,4.8730469 V 5.2226562 A 0.21212356,0.21212356 0 0 0 0,5.4355469 h 1.1796875 v 6.7500001 a 0.21212356,0.21212356 0 0 0 0.2128906,0.212891 H 8.703125 A 0.21212356,0.21212356 0 0 0 8.9160156,12.185547 V 8.9160156 H 12.185547 A 0.21212356,0.21212356 0 0 0 12.398438,8.703125 V 1.3925781 A 0.21212356,0.21212356 0 0 0 12.185547,1.1796875 H 5.4355469 V 0 A 0.21212356,0.21212356 0 0 0 5.2226562,-0.21289063 Z m 16.0156251,0 A 0.21212356,0.21212356 0 0 0 20.675781,0 v 1.1796875 h -6.75 a 0.21212356,0.21212356 0 0 0 -0.21289,0.2128906 V 8.703125 a 0.21212356,0.21212356 0 0 0 0.21289,0.2128906 h 3.267578 v 3.2695314 a 0.21212356,0.21212356 0 0 0 0.212891,0.212891 h 7.310547 a 0.21212356,0.21212356 0 0 0 0.21289,-0.212891 V 5.4355469 h 0.966797 V 20.675781 h -0.966797 v -6.75 a 0.21212356,0.21212356 0 0 0 -0.21289,-0.21289 H 17.40625 a 0.21212356,0.21212356 0 0 0 -0.212891,0.21289 v 3.267578 h -3.267578 a 0.21212356,0.21212356 0 0 0 -0.21289,0.212891 v 7.310547 a 0.21212356,0.21212356 0 0 0 0.21289,0.21289 h 6.75 v 0.966797 H 5.4355469 v -0.966797 h 6.7500001 a 0.21212356,0.21212356 0 0 0 0.212891,-0.21289 V 17.40625 A 0.21212356,0.21212356 0 0 0 12.185547,17.193359 H 8.9160156 V 13.925781 A 0.21212356,0.21212356 0 0 0 8.703125,13.712891 H 1.3925781 a 0.21212356,0.21212356 0 0 0 -0.2128906,0.21289 v 6.75 H 0 a 0.21212356,0.21212356 0 0 0 -0.21289063,0.212891 v 0.347656 A 0.21212356,0.21212356 0 0 0 0,21.449219 h 1.1796875 v 3.267578 a 0.21212356,0.21212356 0 0 0 0.2128906,0.21289 h 3.2675781 v 0.966797 H 0 a 0.21212356,0.21212356 0 0 0 -0.21289063,0.212891 v 0.349609 A 0.21212356,0.21212356 0 0 0 0,26.671875 h 26.458984 a 0.21212356,0.21212356 0 0 0 0.212891,-0.212891 V 26.109375 0 A 0.21212356,0.21212356 0 0 0 26.458984,-0.21289063 H 26.109375 A 0.21212356,0.21212356 0 0 0 25.896484,0 V 4.6601562 H 24.929687 V 1.3925781 A 0.21212356,0.21212356 0 0 0 24.716797,1.1796875 H 21.449219 V 0 A 0.21212356,0.21212356 0 0 0 21.236328,-0.21289063 Z M 1.953125,1.953125 H 4.6601562 V 4.6601562 H 1.953125 Z m 3.4824219,0 H 11.623047 V 4.6601562 H 8.3554688 A 0.21212356,0.21212356 0 0 0 8.1425781,4.8730469 V 8.1425781 H 4.8730469 A 0.21212356,0.21212356 0 0 0 4.6601562,8.3554688 V 11.623047 H 1.953125 V 5.4355469 H 5.2226562 A 0.21212356,0.21212356 0 0 0 5.4355469,5.2226562 Z m 9.0507811,0 h 6.189453 v 3.2695312 a 0.21212356,0.21212356 0 0 0 0.212891,0.2128907 H 24.15625 V 11.623047 H 21.449219 V 8.3554688 A 0.21212356,0.21212356 0 0 0 21.236328,8.1425781 H 17.96875 V 4.8730469 A 0.21212356,0.21212356 0 0 0 17.755859,4.6601562 h -3.269531 z m 6.962891,0 H 24.15625 V 4.6601562 H 21.449219 Z M 8.9160156,5.4355469 H 11.623047 V 8.1425781 H 8.9160156 Z m 5.5703124,0 h 2.707031 V 8.1425781 H 14.486328 Z M 5.4355469,8.9160156 H 8.1425781 V 11.623047 H 5.4355469 Z m 12.5332031,0 h 2.707031 V 11.623047 H 17.96875 Z M 1.953125,14.486328 h 2.7070312 v 3.269531 a 0.21212356,0.21212356 0 0 0 0.2128907,0.212891 h 3.2695312 v 3.267578 a 0.21212356,0.21212356 0 0 0 0.2128907,0.212891 H 11.623047 V 24.15625 H 5.4355469 V 20.888672 A 0.21212356,0.21212356 0 0 0 5.2226562,20.675781 H 1.953125 Z m 3.4824219,0 h 2.7070312 v 2.707031 H 5.4355469 Z m 12.5332031,0 h 2.707031 v 2.707031 H 17.96875 Z m 3.480469,0 h 2.707031 v 6.189453 h -3.267578 a 0.21212356,0.21212356 0 0 0 -0.212891,0.212891 v 3.267578 h -6.189453 v -2.707031 h 3.269531 A 0.21212356,0.21212356 0 0 0 17.96875,21.236328 V 17.96875 h 3.267578 a 0.21212356,0.21212356 0 0 0 0.212891,-0.212891 z M 8.9160156,17.96875 h 2.7070314 v 2.707031 H 8.9160156 Z m 5.5703124,0 h 2.707031 v 2.707031 H 14.486328 Z M 1.953125,21.449219 H 4.6601562 V 24.15625 H 1.953125 Z m 19.496094,0 h 2.707031 v 2.707031 h -2.707031 z m 3.480468,0 h 0.966797 v 4.447265 h -4.447265 v -0.966797 h 3.267578 a 0.21212356,0.21212356 0 0 0 0.21289,-0.21289 z"
       transform="matrix(1.4959333,0,0,1.4959333,-0.21185087,-0.21185087)" /></g></svg>
