<?xml version="1.0" encoding="UTF-8" standalone="no"?>
<!-- Created with Inkscape (http://www.inkscape.org/) -->

<svg
   width="550"
   height="150"
   viewBox="0 0 145.52083 39.687501"
   version="1.1"
   id="svg1"
   xml:space="preserve"
   sodipodi:docname="triangle_logo.svg"
   inkscape:version="1.4 (86a8ad7, 2024-10-11)"
   xmlns:inkscape="http://www.inkscape.org/namespaces/inkscape"
   xmlns:sodipodi="http://sodipodi.sourceforge.net/DTD/sodipodi-0.dtd"
   xmlns="http://www.w3.org/2000/svg"
   xmlns:svg="http://www.w3.org/2000/svg"><sodipodi:namedview
     id="namedview1"
     pagecolor="#ff3939"
     bordercolor="#666666"
     borderopacity="1.0"
     inkscape:showpageshadow="2"
     inkscape:pageopacity="0.0"
     inkscape:pagecheckerboard="0"
     inkscape:deskcolor="#d1d1d1"
     inkscape:document-units="mm"
     inkscape:zoom="1.6527273"
     inkscape:cx="259.57095"
     inkscape:cy="172.13971"
     inkscape:window-width="1920"
     inkscape:window-height="1121"
     inkscape:window-x="-7"
     inkscape:window-y="-7"
     inkscape:window-maximized="1"
     inkscape:current-layer="layer1"><inkscape:page
       x="0"
       y="0"
       width="145.52083"
       height="39.6875"
       id="page2"
       margin="0"
       bleed="0" /></sodipodi:namedview><defs
     id="defs1" /><g
     inkscape:label="Layer 1"
     inkscape:groupmode="layer"
     id="layer1"><g
       id="g17"
       transform="matrix(0.90266092,0,0,0.90266092,0.32667476,-4.3657035)"
       style="fill:#ffffff;fill-opacity:1;stroke:none;stroke-opacity:1"><path
         style="fill:#ffffff;fill-opacity:1;stroke:none;stroke-width:0.292688px;stroke-linecap:butt;stroke-linejoin:miter;stroke-opacity:1"
         d="m 53.061012,20.424892 4.683848,0.01615 V 37.91665 h 3.957047 V 20.441043 h 4.65155 v -3.553265 h -13.29684 z"
         id="path1"
         sodipodi:nodetypes="ccccccccc" /><path
         id="path2"
         style="fill:#ffffff;fill-opacity:1;stroke:none;stroke-width:0.292688px;stroke-linecap:butt;stroke-linejoin:miter;stroke-opacity:1"
         d="M 22.86044,8.0556543 1.9835147,44.601707 24.596564,44.676022 V 31.536478 h 7.308638 l 5.482194,9.456356 H 28.11397 v 3.695193 l 15.486198,0.05088 z m -0.09146,7.5836057 7.12628,12.242614 -14.206828,-0.04573 z m -9.13623,15.942951 h 7.217745 v 9.502088 H 8.3792162 Z"
         sodipodi:nodetypes="ccccccccccccccccccc" /><path
         style="fill:#ffffff;fill-opacity:1;stroke:none;stroke-width:0.292688px;stroke-linecap:butt;stroke-linejoin:miter;stroke-opacity:1"
         d="m 67.948984,24.227353 h 2.51254 l 1.324791,2.055713 c 0,0 1.428293,-2.953705 5.294105,-2.259661 0,0 0.0017,0.67851 0.0051,3.218994 -3.56439,-0.200392 -5.249749,1.306512 -5.289094,3.609206 -0.03027,1.771129 0.01615,6.96814 0.01615,6.96814 h -3.763232 z"
         id="path6"
         sodipodi:nodetypes="cccscsccc" /><path
         style="fill:#ffffff;fill-opacity:1;stroke:none;stroke-width:0.292688px;stroke-linecap:butt;stroke-linejoin:miter;stroke-opacity:1"
         d="m 79.678202,23.703588 h 3.73093 v 14.277669 h -3.747081 z"
         id="path7" /><path
         style="fill:#ffffff;fill-opacity:1;stroke:none;stroke-width:0.292688px;stroke-linecap:butt;stroke-linejoin:miter;stroke-opacity:1"
         d="m 79.742807,20.602556 h 3.61787 v -3.520964 z"
         id="path8" /><path
         id="path9"
         style="fill:#ffffff;fill-opacity:1;stroke:none;stroke-width:0.292688;stroke-linecap:square;stroke-dasharray:none;stroke-opacity:1;paint-order:stroke fill markers"
         d="m 92.695813,23.994032 a 6.4782575,7.1499181 0 0 0 -6.47802,7.149718 6.4782575,7.1499181 0 0 0 6.47802,7.15029 6.4782575,7.1499181 0 0 0 4.625851,-2.169439 v 0.06059 1.925914 h 3.791806 v -13.69862 h -2.689078 l -1.089007,1.740697 v 0.0023 a 6.4782575,7.1499181 0 0 0 -4.639572,-2.161437 z m 1.339965,3.261305 a 3.8269365,3.8269365 0 0 1 3.826674,3.826675 3.8269365,3.8269365 0 0 1 -3.826674,3.827245 3.8269365,3.8269365 0 0 1 -3.827245,-3.827245 3.8269365,3.8269365 0 0 1 3.827245,-3.826675 z" /><path
         style="fill:#ffffff;fill-opacity:1;stroke:none;stroke-width:0.292688px;stroke-linecap:butt;stroke-linejoin:miter;stroke-opacity:1"
         d="m 106.82481,24.341559 h -2.46686 v 13.567708 h 3.81448 v -7.42341 c 0,0 0.0685,-3.254878 2.92369,-3.346245 2.85515,-0.09136 2.67243,3.2092 2.67243,3.2092 v 7.583296 h 3.67744 v -9.798899 c 0,0 -0.45794,-3.91927 -4.47689,-4.145689 -3.24346,-0.18273 -4.86519,2.044292 -4.86519,2.044292 z"
         id="path12"
         sodipodi:nodetypes="cccccsccccscc" /><path
         style="fill:#ffffff;fill-opacity:1;stroke:none;stroke-width:0.292688px;stroke-linecap:butt;stroke-linejoin:miter;stroke-opacity:1"
         d="m 137.84323,19.202276 3.9287,-2.512539 v 21.105322 c 0,0 -3.97437,0.228415 -3.97437,0 0,-0.228411 0.0457,-18.592783 0.0457,-18.592783 z"
         id="path13" /><path
         id="path14"
         style="fill:#ffffff;fill-opacity:1;stroke:none;stroke-width:0.292688px;stroke-linecap:butt;stroke-linejoin:miter;stroke-opacity:1"
         d="m 127.13759,23.857978 c -1.38987,-0.02074 -3.56157,0.280892 -5.26038,2.036814 -2.71811,2.809474 -1.75899,7.057681 -1.75899,7.057681 0,0 1.18801,4.751048 5.45933,5.276398 4.27131,0.52535 5.55021,-2.192306 5.55021,-2.192306 v 1.987081 c 0,0 0.20594,3.951239 -3.31161,3.905563 -3.51756,-0.04568 -3.40364,-2.306637 -3.40364,-2.306637 h -4.13423 c 0,0 0.38818,5.481655 7.72023,5.504488 7.33204,0.02284 6.89819,-6.806724 6.89819,-6.806724 l -0.1372,-14.001603 -2.42096,0.02287 -1.27937,1.644658 c -1.41616,-1.850141 -2.5353,-1.98708 -2.5353,-1.98708 0,0 -0.55234,-0.128753 -1.38628,-0.141199 z m 0.49563,3.338478 c 0,0 3.95165,-0.0682 3.92843,3.883269 -0.0228,3.88596 -4.08849,3.860401 -4.08849,3.860401 0,0 -3.56734,0.06837 -3.58601,-3.837535 -0.0191,-3.997437 3.74607,-3.906135 3.74607,-3.906135 z" /><path
         id="path16"
         style="fill:#ffffff;fill-opacity:1;stroke:none;stroke-width:0.292688px;stroke-linecap:butt;stroke-linejoin:miter;stroke-opacity:1"
         d="m 151.61653,23.861979 c -7.72034,0.04569 -7.35494,7.674499 -7.35494,7.674499 0,0 -0.0458,6.692438 7.21775,6.738125 3.41417,0.02147 5.24887,-1.364946 6.23449,-2.840565 l -2.73881,-1.773281 c 0,0 -0.6296,1.728475 -3.28646,1.752702 -2.65687,0.02423 -3.49675,-1.93034 -3.50483,-2.584463 -0.008,-0.654124 -0.016,-1.178186 -0.016,-1.178186 h 10.4156 c 0,0 0.75356,-7.834514 -6.96679,-7.788831 z m -0.21322,2.635341 c 0.0537,-6.33e-4 0.10854,-1.86e-4 0.16406,5.71e-4 3.55327,0.04845 3.24644,2.794261 3.24644,2.794261 h -6.50889 c 0,0 -0.28211,-2.754972 3.09839,-2.794832 z" /></g></g></svg>
